<svg width="24" height="24" viewBox="0 0 24 24" fill="none" xmlns="http://www.w3.org/2000/svg">
<path d="M18.1875 12L19.9062 10.2812C20 10.1875 20 10.0312 19.9062 9.9375L19.5625 9.59375C19.4688 9.5 19.3125 9.5 19.2188 9.59375L17.5 11.3125L15.75 9.59375C15.6562 9.5 15.5 9.5 15.4062 9.59375L15.0625 9.9375C14.9688 10.0312 14.9688 10.1875 15.0625 10.2812L16.7812 12L15.0625 13.75C14.9688 13.8438 14.9688 14 15.0625 14.0938L15.4062 14.4375C15.5 14.5312 15.6562 14.5312 15.75 14.4375L17.5 12.7188L19.2188 14.4375C19.3125 14.5312 19.4688 14.5312 19.5625 14.4375L19.9062 14.0938C20 14 20 13.8438 19.9062 13.75L18.1875 12ZM11.2188 6C11.0312 6 10.8438 6.09375 10.7188 6.25L7.9375 9H4.75C4.3125 9 4 9.34375 4 9.75V14.25C4 14.6875 4.3125 15 4.75 15H7.9375L10.7188 17.7812C10.8438 17.9375 11.0312 18 11.2188 18C11.625 18 12 17.7188 12 17.25V6.78125C12 6.3125 11.625 6 11.2188 6ZM11 16.6562L8.625 14.3125L8.34375 14H5V10H8.34375L8.625 9.71875L11 7.375V16.6562Z" fill="black"/>
</svg>
