<svg width="24" height="24" viewBox="0 0 24 24" fill="none" xmlns="http://www.w3.org/2000/svg">
<path d="M16.8125 7.15625C16.4688 6.9375 16 7.0625 15.7812 7.40625C15.5625 7.75 15.6562 8.21875 16 8.4375C17.25 9.21875 18 10.5625 18 12C18 13.4688 17.25 14.8125 16 15.5938C15.6562 15.8125 15.5625 16.2812 15.7812 16.625C15.9688 16.9688 16.4375 17.0938 16.8125 16.875C18.4688 15.8125 19.5 14 19.5 12C19.5 10.0312 18.4688 8.21875 16.8125 7.15625ZM15.0625 9.625C14.6875 9.40625 14.25 9.53125 14.0312 9.90625C13.8438 10.2812 13.9688 10.7188 14.3438 10.9375C14.7188 11.1562 15 11.5625 15 12C15 12.4688 14.7188 12.875 14.3438 13.0938C13.9688 13.3125 13.8438 13.75 14.0312 14.125C14.25 14.5 14.6875 14.625 15.0625 14.4062C15.9375 13.9375 16.5 13 16.5 12C16.5 11.0312 15.9375 10.0938 15.0625 9.625ZM11.7188 6C11.5312 6 11.3438 6.09375 11.2188 6.25L8.4375 9H5.25C4.8125 9 4.5 9.34375 4.5 9.75V14.25C4.5 14.6875 4.8125 15 5.25 15H8.4375L11.2188 17.7812C11.3438 17.9375 11.5312 18 11.7188 18C12.125 18 12.5 17.7188 12.5 17.25V6.78125C12.5 6.3125 12.125 6 11.7188 6ZM11 15.4688L9.03125 13.5H6V10.5H9.03125L11 8.5625V15.4688Z" fill="black"/>
</svg>
