<svg width="24" height="24" viewBox="0 0 24 24" fill="none" xmlns="http://www.w3.org/2000/svg">
<path d="M15.1875 10.0625C14.9688 9.9375 14.6562 10.0625 14.5312 10.3125C14.4062 10.5625 14.5312 10.8438 14.7812 10.9688C15.2188 11.1875 15.5 11.5938 15.5 12C15.5 12.4375 15.2188 12.8438 14.7812 13.0625C14.5312 13.1875 14.4062 13.4688 14.5312 13.7188C14.6562 13.9688 14.9688 14.0938 15.1875 13.9688C16 13.5938 16.5 12.8438 16.5 12C16.5 11.1875 16 10.4375 15.1875 10.0625ZM11.7188 6C11.5312 6 11.3438 6.09375 11.2188 6.25L8.4375 9H5.25C4.8125 9 4.5 9.34375 4.5 9.75V14.25C4.5 14.6875 4.8125 15 5.25 15H8.4375L11.2188 17.7812C11.3438 17.9375 11.5312 18 11.7188 18C12.125 18 12.5 17.7188 12.5 17.25V6.78125C12.5 6.3125 12.125 6 11.7188 6ZM11.5 16.6562L8.84375 14H5.5V10H8.84375L11.5 7.375V16.6562ZM19.5 12C19.5 9.9375 18.4062 8.0625 16.7188 7.09375C16.4688 6.9375 16.1562 7.03125 16.0312 7.28125C15.875 7.5 15.9688 7.8125 16.2188 7.9375C17.5938 8.75 18.4688 10.3125 18.4688 12C18.4688 13.7188 17.5938 15.2812 16.2188 16.0938C15.9688 16.2188 15.875 16.5312 16.0312 16.75C16.1562 17 16.4688 17.0938 16.7188 16.9375C18.4062 15.9688 19.5 14.0938 19.5 12Z" fill="black"/>
</svg>
