<svg width="24" height="24" viewBox="0 0 24 24" fill="none" xmlns="http://www.w3.org/2000/svg">
<path d="M11.2188 6C11.0312 6 10.8438 6.09375 10.7188 6.25L7.9375 9H4.75C4.3125 9 4 9.34375 4 9.75V14.25C4 14.6875 4.3125 15 4.75 15H7.9375L10.7188 17.7812C10.8438 17.9375 11.0312 18 11.2188 18C11.625 18 12 17.7188 12 17.25V6.78125C12 6.3125 11.625 6 11.2188 6ZM10.5 15.4688L9 13.9688L8.53125 13.5H5.5V10.5H8.53125L9 10.0625L10.5 8.5625V15.4688ZM18.5312 12L19.8438 10.7188C20.0312 10.5312 20.0312 10.2188 19.8438 10L19.5 9.65625C19.2812 9.46875 18.9688 9.46875 18.7812 9.65625L17.5 10.9688L16.1875 9.65625C16 9.46875 15.6875 9.46875 15.5 9.65625L15.125 10C14.9375 10.2188 14.9375 10.5312 15.125 10.7188L16.4375 12L15.125 13.3125C14.9375 13.5 14.9375 13.8125 15.125 14L15.5 14.375C15.6875 14.5625 16 14.5625 16.1875 14.375L17.5 13.0625L18.7812 14.375C18.9688 14.5625 19.2812 14.5625 19.5 14.375L19.8438 14C20.0312 13.8125 20.0312 13.5 19.8438 13.3125L18.5312 12Z" fill="black"/>
</svg>
